<?xml version="1.0" encoding="UTF-8"?>
<svg width="800" height="500" viewBox="0 0 800 500" xmlns="http://www.w3.org/2000/svg">
  <!-- Background -->
  <rect width="800" height="500" fill="#f8fafc" rx="8" />
  
  <!-- Header -->
  <rect x="20" y="20" width="760" height="50" rx="4" fill="#e2e8f0" />
  <circle cx="50" cy="45" r="15" fill="#94a3b8" />
  <rect x="80" y="35" width="120" height="20" rx="4" fill="#94a3b8" />
  <rect x="600" y="35" width="80" height="20" rx="4" fill="#94a3b8" />
  <rect x="700" y="35" width="40" height="20" rx="10" fill="#94a3b8" />
  
  <!-- Left sidebar -->
  <rect x="20" y="90" width="180" height="390" rx="4" fill="#e2e8f0" />
  <rect x="40" y="120" width="140" height="20" rx="4" fill="#94a3b8" />
  <rect x="40" y="160" width="140" height="20" rx="4" fill="#94a3b8" />
  <rect x="40" y="200" width="140" height="20" rx="4" fill="#94a3b8" />
  <rect x="40" y="240" width="140" height="20" rx="4" fill="#94a3b8" />
  <rect x="40" y="280" width="140" height="20" rx="4" fill="#94a3b8" />
  
  <!-- Main content area -->
  <rect x="220" y="90" width="560" height="160" rx="4" fill="#e2e8f0" />
  
  <!-- Stats cards -->
  <rect x="240" y="110" width="150" height="120" rx="4" fill="#ffffff" stroke="#cbd5e1" />
  <rect x="260" y="130" width="80" height="15" rx="2" fill="#94a3b8" />
  <text x="260" y="170" font-family="Arial" font-size="24" fill="#475569">$240</text>
  <rect x="260" y="180" width="100" height="10" rx="2" fill="#94a3b8" />
  
  <rect x="410" y="110" width="150" height="120" rx="4" fill="#ffffff" stroke="#cbd5e1" />
  <rect x="430" y="130" width="80" height="15" rx="2" fill="#94a3b8" />
  <text x="430" y="170" font-family="Arial" font-size="24" fill="#475569">24</text>
  <rect x="430" y="180" width="100" height="10" rx="2" fill="#94a3b8" />
  
  <rect x="580" y="110" width="150" height="120" rx="4" fill="#ffffff" stroke="#cbd5e1" />
  <rect x="600" y="130" width="80" height="15" rx="2" fill="#94a3b8" />
  <text x="600" y="170" font-family="Arial" font-size="24" fill="#475569">8</text>
  <rect x="600" y="180" width="100" height="10" rx="2" fill="#94a3b8" />
  
  <!-- Subscription chart -->
  <rect x="220" y="270" width="350" height="210" rx="4" fill="#e2e8f0" />
  <rect x="240" y="290" width="150" height="20" rx="2" fill="#94a3b8" />
  
  <!-- Chart placeholder -->
  <rect x="240" y="330" width="310" height="130" rx="4" fill="#ffffff" stroke="#cbd5e1" />
  <!-- Chart bars -->
  <rect x="270" y="410" width="20" height="30" fill="#3b82f6" rx="2" />
  <rect x="300" y="390" width="20" height="50" fill="#3b82f6" rx="2" />
  <rect x="330" y="360" width="20" height="80" fill="#3b82f6" rx="2" />
  <rect x="360" y="380" width="20" height="60" fill="#3b82f6" rx="2" />
  <rect x="390" y="350" width="20" height="90" fill="#3b82f6" rx="2" />
  <rect x="420" y="370" width="20" height="70" fill="#3b82f6" rx="2" />
  <rect x="450" y="400" width="20" height="40" fill="#3b82f6" rx="2" />
  <rect x="480" y="420" width="20" height="20" fill="#3b82f6" rx="2" />
  
  <!-- Right panel -->
  <rect x="590" y="270" width="190" height="210" rx="4" fill="#e2e8f0" />
  <rect x="610" y="290" width="150" height="20" rx="2" fill="#94a3b8" />
  
  <!-- Upcoming renewals list -->
  <rect x="610" y="330" width="150" height="30" rx="4" fill="#ffffff" stroke="#cbd5e1" />
  <rect x="620" y="340" width="100" height="10" rx="2" fill="#94a3b8" />
  
  <rect x="610" y="370" width="150" height="30" rx="4" fill="#ffffff" stroke="#cbd5e1" />
  <rect x="620" y="380" width="100" height="10" rx="2" fill="#94a3b8" />
  
  <rect x="610" y="410" width="150" height="30" rx="4" fill="#ffffff" stroke="#cbd5e1" />
  <rect x="620" y="420" width="100" height="10" rx="2" fill="#94a3b8" />
  
  <!-- Buttons/Actions -->
  <rect x="610" y="450" width="70" height="25" rx="12" fill="#3b82f6" />
  <rect x="690" y="450" width="70" height="25" rx="12" fill="#94a3b8" />

  <!-- Accessibility info -->
  <title>Subscription Dashboard Placeholder</title>
  <desc>A wireframe representation of a subscription management dashboard showing analytics, charts and upcoming renewals.</desc>
</svg>