<?xml version="1.0" encoding="UTF-8"?>
<svg id="Layer_2" data-name="Layer 2" xmlns="http://www.w3.org/2000/svg" viewBox="0 0 673.05 157.86">
  <defs>
    <style>
      .cls-1 {
        fill: #cecece;
      }

      .cls-2 {
        fill: #eaac2f;
      }

      .cls-3 {
        fill: #fff;
      }
    </style>
  </defs>
  <g id="Layer_1-2" data-name="Layer 1">
    <g>
      <g>
        <path class="cls-2" d="M204.62,53.13h-100.69l5.91-24.83c.32-.53-.31-1.62-.67-1.62H25.73c-9.23,0-19.18,6.54-23,14.96-1.51,3.33-2.98,7.93-2.23,11.5h102.94l-6,25.95h107.18l.75-.75v-24.46l-.75-.75Z"/>
        <path class="cls-2" d="M.75,79.08l-.75.75v24.46l1.72.77c29.74-.03,59.49-.04,89.22-.03,2.11-8.61,4.06-17.3,6-25.95H.75Z"/>
        <path class="cls-2" d="M90.94,105.04c-2.02,8.27-4.47,16.51-6.41,24.82l.67,1.14h99.44c1.79,0,3.81-1.31,4.43-1.56,9.26-3.78,16.01-13.41,16.08-23.39l-1.12-.9c-37.69-.2-75.39-.08-113.08-.1Z"/>
        <path class="cls-2" d="M205.34,25.48c.07-.95-.98-5.47-1.33-6.68-3.06-10.64-13.62-17.43-24.35-18.1-13.11-.83-34.02-1.02-47.01,0-13.73,1.09-21.27,13.26-22.22,25.97h94.19c.31,0,.69-.74.72-1.2Z"/>
        <path class="cls-2" d="M15.3,154.89c8.19,3.66,32.25,3.12,41.94,2.58,3.24-.18,6.76-.68,9.82-1.67,10.92-3.52,16.04-13.95,16.88-24.81H.5c-1.06,9.51,6.17,20.04,14.8,23.9Z"/>
      </g>
      <g>
        <path class="cls-3" d="M263.64,41.68c-.19-1.9-1-3.37-2.42-4.42-1.43-1.05-3.36-1.58-5.81-1.58-1.66,0-3.07.23-4.21.69-1.15.46-2.02,1.1-2.62,1.92-.6.82-.91,1.74-.91,2.78-.03.86.15,1.62.55,2.26.4.64.95,1.2,1.66,1.66.71.46,1.52.86,2.45,1.2.93.34,1.91.62,2.97.86l4.33,1.03c2.1.47,4.03,1.1,5.79,1.88,1.76.78,3.28,1.75,4.56,2.89,1.29,1.15,2.29,2.49,3,4.05s1.08,3.33,1.09,5.34c-.02,2.95-.76,5.5-2.25,7.66-1.48,2.16-3.62,3.83-6.4,5.01-2.78,1.18-6.14,1.78-10.06,1.78s-7.28-.6-10.15-1.79-5.12-2.96-6.73-5.31-2.45-5.25-2.53-8.72h9.86c.11,1.62.58,2.96,1.4,4.04.82,1.07,1.93,1.88,3.32,2.42,1.39.54,2.96.81,4.72.81s3.23-.25,4.51-.75c1.28-.5,2.27-1.2,2.98-2.09.71-.89,1.06-1.92,1.06-3.08,0-1.08-.32-1.99-.95-2.73-.64-.74-1.56-1.36-2.78-1.88s-2.7-.99-4.46-1.41l-5.25-1.32c-4.06-.99-7.27-2.53-9.62-4.64-2.35-2.1-3.52-4.93-3.51-8.5-.02-2.92.76-5.47,2.34-7.65,1.58-2.18,3.74-3.88,6.51-5.11,2.76-1.22,5.9-1.84,9.41-1.84s6.7.61,9.38,1.84c2.67,1.22,4.76,2.93,6.25,5.11,1.49,2.18,2.26,4.71,2.31,7.58h-9.77Z"/>
        <path class="cls-3" d="M303.36,60.62v-20.76h10.02v36.14h-9.62v-6.57h-.38c-.82,2.12-2.17,3.82-4.06,5.11-1.89,1.29-4.19,1.93-6.91,1.93-2.42,0-4.54-.55-6.38-1.65-1.84-1.1-3.27-2.66-4.29-4.68-1.03-2.02-1.55-4.45-1.57-7.27v-23.01h10.02v21.23c.02,2.13.59,3.82,1.72,5.06,1.13,1.24,2.64,1.86,4.54,1.86,1.21,0,2.34-.28,3.39-.84s1.9-1.38,2.55-2.48c.65-1.1.97-2.45.95-4.07Z"/>
        <path class="cls-3" d="M320.94,76.01V27.82h10.02v18.12h.31c.44-.97,1.08-1.97,1.92-2.98.84-1.01,1.94-1.86,3.29-2.54,1.36-.68,3.05-1.02,5.07-1.02,2.64,0,5.07.69,7.3,2.06,2.23,1.37,4.01,3.44,5.34,6.19,1.33,2.75,2,6.2,2,10.34s-.65,7.43-1.94,10.2c-1.29,2.77-3.05,4.86-5.27,6.28s-4.7,2.13-7.45,2.13c-1.95,0-3.6-.32-4.95-.96-1.36-.64-2.47-1.45-3.33-2.44-.86-.98-1.52-1.97-1.98-2.98h-.45v5.79h-9.88ZM330.75,57.94c0,2.15.3,4.02.89,5.62.6,1.6,1.46,2.84,2.59,3.73,1.13.89,2.5,1.33,4.12,1.33s3.01-.45,4.14-1.35c1.13-.9,1.99-2.16,2.58-3.77s.88-3.46.88-5.56-.29-3.92-.87-5.51c-.58-1.58-1.43-2.82-2.56-3.72-1.13-.89-2.52-1.34-4.16-1.34s-3.01.43-4.13,1.29c-1.12.86-1.98,2.09-2.58,3.67-.6,1.58-.89,3.45-.89,5.6Z"/>
        <path class="cls-3" d="M391.75,50.18l-9.18.57c-.16-.78-.49-1.49-1.01-2.13-.52-.64-1.2-1.15-2.04-1.53-.84-.38-1.84-.58-3-.58-1.55,0-2.86.33-3.93.98-1.07.65-1.6,1.52-1.6,2.6,0,.86.34,1.59,1.04,2.19.69.6,1.87,1.07,3.55,1.44l6.54,1.32c3.51.72,6.13,1.88,7.86,3.48,1.73,1.6,2.59,3.7,2.59,6.31,0,2.37-.69,4.45-2.08,6.24-1.39,1.79-3.29,3.18-5.69,4.18-2.41,1-5.18,1.49-8.32,1.49-4.79,0-8.59-1-11.42-3-2.83-2-4.49-4.73-4.98-8.18l9.86-.52c.3,1.46,1.02,2.57,2.16,3.33,1.15.76,2.61,1.14,4.4,1.14s3.17-.34,4.25-1.02c1.07-.68,1.62-1.56,1.64-2.65-.02-.91-.4-1.66-1.15-2.25-.75-.59-1.91-1.04-3.48-1.35l-6.26-1.25c-3.53-.71-6.15-1.93-7.87-3.67-1.72-1.74-2.58-3.96-2.58-6.66,0-2.32.63-4.32,1.89-6,1.26-1.68,3.04-2.97,5.34-3.88,2.3-.91,4.99-1.36,8.08-1.36,4.57,0,8.16.96,10.79,2.89,2.63,1.93,4.16,4.56,4.6,7.88Z"/>
        <path class="cls-3" d="M414.15,76.72c-3.7,0-6.88-.79-9.54-2.37-2.66-1.58-4.7-3.77-6.12-6.58s-2.13-6.04-2.13-9.69.72-6.95,2.15-9.75c1.44-2.8,3.48-4.99,6.13-6.56,2.65-1.58,5.8-2.37,9.46-2.37,3.15,0,5.91.57,8.28,1.72,2.37,1.15,4.24,2.75,5.62,4.82s2.14,4.5,2.28,7.3h-9.46c-.27-1.8-.97-3.26-2.11-4.37-1.14-1.11-2.62-1.66-4.46-1.66-1.55,0-2.91.42-4.06,1.26-1.15.84-2.05,2.06-2.69,3.66-.64,1.6-.96,3.54-.96,5.81s.32,4.27.95,5.88c.64,1.62,1.53,2.85,2.69,3.69s2.52,1.27,4.07,1.27c1.14,0,2.18-.24,3.09-.71.92-.47,1.68-1.16,2.28-2.06.6-.9,1-1.99,1.19-3.26h9.46c-.16,2.76-.91,5.19-2.25,7.28-1.34,2.09-3.19,3.73-5.54,4.91s-5.14,1.77-8.35,1.77Z"/>
        <path class="cls-3" d="M436.01,76.01v-36.14h9.72v6.31h.38c.66-2.24,1.77-3.94,3.32-5.09,1.55-1.15,3.34-1.73,5.37-1.73.5,0,1.04.03,1.62.09.58.06,1.09.15,1.53.26v8.89c-.47-.14-1.12-.27-1.95-.38-.83-.11-1.59-.16-2.28-.16-1.48,0-2.79.32-3.94.95-1.15.64-2.06,1.52-2.73,2.65s-1,2.43-1,3.91v20.45h-10.02Z"/>
        <path class="cls-3" d="M467.08,35.21c-1.49,0-2.76-.5-3.82-1.49-1.06-1-1.59-2.19-1.59-3.59s.53-2.57,1.59-3.56c1.06-1,2.33-1.49,3.82-1.49s2.76.5,3.82,1.49,1.59,2.18,1.59,3.56-.53,2.59-1.59,3.59c-1.06,1-2.33,1.49-3.82,1.49ZM462.04,76.01v-36.14h10.02v36.14h-10.02Z"/>
        <path class="cls-3" d="M479.56,89.57v-49.7h9.88v6.07h.45c.44-.97,1.08-1.97,1.92-2.98.84-1.01,1.94-1.86,3.29-2.54,1.36-.68,3.05-1.02,5.07-1.02,2.64,0,5.07.69,7.3,2.06,2.23,1.37,4.01,3.44,5.34,6.19,1.33,2.75,2,6.2,2,10.34s-.65,7.43-1.94,10.2c-1.29,2.77-3.05,4.86-5.27,6.28-2.22,1.42-4.7,2.13-7.45,2.13-1.95,0-3.6-.32-4.95-.96-1.36-.64-2.47-1.45-3.33-2.44-.86-.98-1.52-1.97-1.98-2.98h-.31v19.34h-10.02ZM489.37,57.94c0,2.15.3,4.02.89,5.62.6,1.6,1.46,2.84,2.59,3.73,1.13.89,2.5,1.33,4.12,1.33s3.01-.45,4.14-1.35c1.13-.9,1.99-2.16,2.58-3.77.59-1.61.88-3.46.88-5.56s-.29-3.92-.87-5.51c-.58-1.58-1.43-2.82-2.56-3.72-1.13-.89-2.52-1.34-4.17-1.34s-3.01.43-4.13,1.29c-1.12.86-1.98,2.09-2.58,3.67s-.89,3.45-.89,5.6Z"/>
        <path class="cls-3" d="M539.22,39.87v7.53h-21.77v-7.53h21.77ZM522.4,31.21h10.02v33.7c0,.93.14,1.64.42,2.15.28.51.68.87,1.19,1.07s1.1.31,1.78.31c.47,0,.94-.04,1.41-.13.47-.09.83-.15,1.08-.2l1.58,7.46c-.5.16-1.21.34-2.12.55s-2.02.34-3.32.39c-2.42.09-4.53-.23-6.34-.96-1.81-.74-3.22-1.88-4.22-3.44-1-1.55-1.5-3.51-1.48-5.88V31.21Z"/>
        <path class="cls-3" d="M549.89,35.21c-1.49,0-2.76-.5-3.82-1.49-1.06-1-1.59-2.19-1.59-3.59s.53-2.57,1.59-3.56c1.06-1,2.33-1.49,3.82-1.49s2.76.5,3.82,1.49,1.59,2.18,1.59,3.56-.53,2.59-1.59,3.59c-1.06,1-2.33,1.49-3.82,1.49ZM544.85,76.01v-36.14h10.02v36.14h-10.02Z"/>
        <path class="cls-3" d="M578.42,76.72c-3.66,0-6.81-.78-9.47-2.34-2.66-1.56-4.71-3.74-6.15-6.54-1.44-2.8-2.16-6.05-2.16-9.75s.72-7,2.16-9.8c1.44-2.8,3.49-4.98,6.15-6.54,2.66-1.56,5.82-2.34,9.47-2.34s6.81.78,9.47,2.34c2.66,1.56,4.71,3.74,6.15,6.54,1.44,2.8,2.16,6.07,2.16,9.8s-.72,6.95-2.16,9.75c-1.44,2.8-3.49,4.98-6.15,6.54-2.66,1.56-5.82,2.34-9.47,2.34ZM578.47,68.95c1.66,0,3.05-.47,4.16-1.42s1.96-2.25,2.53-3.89.86-3.52.86-5.62-.29-3.98-.86-5.62-1.42-2.95-2.53-3.91c-1.11-.96-2.5-1.43-4.16-1.43s-3.09.48-4.22,1.43c-1.14.96-1.99,2.26-2.56,3.91-.57,1.65-.86,3.52-.86,5.62s.29,3.98.86,5.62c.57,1.65,1.43,2.95,2.56,3.89s2.55,1.42,4.22,1.42Z"/>
        <path class="cls-3" d="M612,55.12v20.9h-10.02v-36.14h9.55v6.38h.42c.8-2.1,2.14-3.77,4.02-5,1.88-1.23,4.16-1.85,6.85-1.85,2.51,0,4.7.55,6.57,1.65,1.87,1.1,3.32,2.66,4.35,4.7s1.55,4.45,1.55,7.26v23.01h-10.03v-21.23c.02-2.21-.55-3.94-1.69-5.19-1.14-1.25-2.72-1.87-4.73-1.87-1.35,0-2.54.29-3.57.87-1.03.58-1.83,1.42-2.4,2.53-.57,1.11-.87,2.44-.88,3.99Z"/>
        <path class="cls-3" d="M672.22,50.18l-9.18.57c-.16-.78-.49-1.49-1.01-2.13s-1.2-1.15-2.04-1.53-1.84-.58-3-.58c-1.55,0-2.86.33-3.93.98-1.07.65-1.6,1.52-1.6,2.6,0,.86.34,1.59,1.03,2.19.69.6,1.87,1.07,3.55,1.44l6.54,1.32c3.51.72,6.13,1.88,7.86,3.48,1.73,1.6,2.59,3.7,2.59,6.31,0,2.37-.69,4.45-2.08,6.24-1.39,1.79-3.29,3.18-5.69,4.18-2.41,1-5.18,1.49-8.32,1.49-4.78,0-8.59-1-11.42-3-2.83-2-4.49-4.73-4.98-8.18l9.86-.52c.3,1.46,1.02,2.57,2.16,3.33,1.14.76,2.61,1.14,4.4,1.14s3.17-.34,4.25-1.02,1.62-1.56,1.64-2.65c-.02-.91-.4-1.66-1.15-2.25-.75-.59-1.91-1.04-3.48-1.35l-6.26-1.25c-3.53-.71-6.15-1.93-7.87-3.67-1.72-1.74-2.58-3.96-2.58-6.66,0-2.32.63-4.32,1.89-6s3.04-2.97,5.34-3.88c2.3-.91,4.99-1.36,8.08-1.36,4.56,0,8.16.96,10.79,2.89,2.63,1.93,4.16,4.56,4.6,7.88Z"/>
      </g>
      <g>
        <path class="cls-1" d="M254.26,101.64v5.98h-17.29v-5.98h17.29ZM240.9,94.76h7.96v26.77c0,.74.11,1.31.34,1.71.22.41.54.69.94.85.4.16.88.24,1.41.24.37,0,.75-.03,1.12-.1s.66-.12.86-.16l1.25,5.93c-.4.12-.96.27-1.68.44-.72.17-1.6.27-2.64.31-1.92.07-3.6-.18-5.04-.77-1.44-.59-2.56-1.5-3.36-2.73s-1.19-2.79-1.18-4.67v-27.82Z"/>
        <path class="cls-1" d="M258.97,130.36v-28.71h7.72v5.01h.3c.52-1.78,1.4-3.13,2.64-4.05s2.65-1.37,4.26-1.37c.4,0,.83.03,1.29.08s.87.12,1.22.21v7.07c-.37-.11-.89-.21-1.55-.3s-1.27-.13-1.81-.13c-1.17,0-2.22.25-3.13.76-.92.5-1.64,1.2-2.17,2.1-.53.9-.79,1.93-.79,3.1v16.25h-7.96Z"/>
        <path class="cls-1" d="M288.23,130.9c-1.83,0-3.47-.32-4.9-.96-1.43-.64-2.56-1.59-3.39-2.86-.83-1.27-1.24-2.84-1.24-4.74,0-1.6.29-2.94.88-4.02.59-1.08,1.38-1.96,2.39-2.62,1.01-.66,2.16-1.16,3.45-1.49,1.29-.34,2.64-.57,4.07-.71,1.67-.17,3.02-.34,4.04-.5s1.76-.39,2.22-.7c.46-.31.69-.77.69-1.38v-.11c0-1.18-.37-2.1-1.11-2.75-.74-.65-1.79-.97-3.15-.97-1.43,0-2.57.31-3.42.94s-1.41,1.42-1.68,2.36l-7.37-.6c.37-1.74,1.11-3.26,2.21-4.53,1.1-1.28,2.51-2.26,4.25-2.95,1.74-.69,3.75-1.04,6.05-1.04,1.6,0,3.12.19,4.59.56,1.46.37,2.77.95,3.91,1.74,1.14.79,2.04,1.79,2.7,3.02.66,1.23.99,2.7.99,4.4v19.37h-7.55v-3.98h-.22c-.46.9-1.08,1.69-1.85,2.37-.77.68-1.7,1.21-2.79,1.59s-2.34.57-3.76.57ZM290.51,125.4c1.17,0,2.21-.23,3.1-.7.9-.47,1.6-1.1,2.11-1.9.51-.8.77-1.7.77-2.71v-3.05c-.25.16-.59.31-1.02.44-.43.13-.91.25-1.45.35s-1.07.2-1.61.28-1.02.15-1.46.21c-.93.14-1.75.35-2.45.65s-1.24.7-1.63,1.21-.58,1.13-.58,1.88c0,1.08.4,1.91,1.19,2.48s1.8.85,3.02.85Z"/>
        <path class="cls-1" d="M323.23,130.92c-2.94,0-5.47-.63-7.58-1.88s-3.73-2.99-4.86-5.23c-1.13-2.23-1.69-4.8-1.69-7.7s.57-5.52,1.71-7.75c1.14-2.22,2.76-3.96,4.87-5.22s4.61-1.88,7.51-1.88c2.51,0,4.7.45,6.58,1.36,1.88.91,3.37,2.19,4.47,3.83,1.1,1.64,1.7,3.58,1.81,5.8h-7.51c-.21-1.43-.77-2.59-1.67-3.47-.9-.88-2.08-1.32-3.54-1.32-1.23,0-2.31.33-3.22,1s-1.63,1.64-2.14,2.91c-.51,1.27-.77,2.81-.77,4.62s.25,3.39.76,4.67c.51,1.28,1.22,2.26,2.14,2.94.92.67,2,1.01,3.23,1.01.91,0,1.73-.19,2.46-.56.73-.37,1.33-.92,1.81-1.64.48-.72.79-1.58.94-2.59h7.51c-.12,2.19-.72,4.12-1.79,5.79-1.07,1.66-2.53,2.96-4.4,3.9s-4.08,1.4-6.64,1.4Z"/>
        <path class="cls-1" d="M340.87,130.36v-38.29h7.96v38.29h-7.96ZM348.09,122.09l.02-9.55h1.16l9.2-10.9h9.14l-12.36,14.43h-1.89l-5.27,6.02ZM358.82,130.36l-8.45-12.51,5.31-5.63,12.47,18.13h-9.33Z"/>
        <path class="cls-1" d="M382.83,130.92c-2.95,0-5.49-.6-7.62-1.8-2.13-1.2-3.76-2.91-4.91-5.12-1.15-2.21-1.72-4.83-1.72-7.86s.57-5.55,1.72-7.78c1.15-2.23,2.76-3.97,4.85-5.22,2.09-1.25,4.54-1.87,7.36-1.87,1.89,0,3.66.3,5.3.91,1.64.61,3.07,1.51,4.3,2.72s2.18,2.73,2.87,4.55,1.03,3.96,1.03,6.4v2.19h-24.25v-4.94h16.75c0-1.15-.25-2.16-.75-3.05-.5-.88-1.19-1.58-2.07-2.08-.88-.51-1.9-.76-3.06-.76s-2.28.28-3.21.83-1.65,1.3-2.18,2.22c-.52.93-.79,1.96-.8,3.09v4.69c0,1.42.26,2.65.79,3.68.53,1.03,1.28,1.83,2.25,2.39.97.56,2.12.84,3.46.84.88,0,1.69-.13,2.43-.37s1.36-.62,1.89-1.12c.52-.5.92-1.11,1.2-1.83l7.37.49c-.37,1.77-1.14,3.31-2.29,4.63-1.15,1.32-2.64,2.34-4.45,3.07-1.81.73-3.9,1.09-6.27,1.09Z"/>
        <path class="cls-1" d="M401.04,130.36v-28.71h7.72v5.01h.3c.52-1.78,1.4-3.13,2.64-4.05s2.65-1.37,4.26-1.37c.4,0,.83.03,1.29.08s.87.12,1.22.21v7.07c-.37-.11-.89-.21-1.55-.3s-1.27-.13-1.81-.13c-1.17,0-2.22.25-3.13.76-.92.5-1.64,1.2-2.17,2.1-.53.9-.79,1.93-.79,3.1v16.25h-7.96Z"/>
      </g>
    </g>
  </g>
</svg>